<svg xmlns="http://www.w3.org/2000/svg" xmlns:xlink="http://www.w3.org/1999/xlink" viewBox="0 0 465.08 290.63"><defs><style>.cls-1{fill:url(#linear-gradient);}.cls-2{fill:url(#linear-gradient-2);}.cls-3{fill:url(#linear-gradient-3);}.cls-4{fill:url(#linear-gradient-4);}.cls-5{fill:url(#linear-gradient-5);}.cls-6{fill:url(#linear-gradient-6);}.cls-7{fill:url(#linear-gradient-7);}.cls-8{fill:url(#linear-gradient-8);}.cls-9{fill:url(#linear-gradient-9);}.cls-10{fill:url(#linear-gradient-10);}.cls-11{fill:url(#linear-gradient-11);}.cls-12{fill:url(#linear-gradient-12);}.cls-13{fill:#fff;}</style><linearGradient id="linear-gradient" x1="449.18" y1="145.12" x2="-21.82" y2="145.12" gradientUnits="userSpaceOnUse"><stop offset="0" stop-color="#29abe2"/><stop offset="1" stop-color="#2e3192"/></linearGradient><linearGradient id="linear-gradient-2" x1="348.09" y1="123.16" x2="369.29" y2="123.16" xlink:href="#linear-gradient"/><linearGradient id="linear-gradient-3" x1="260.97" y1="64.06" x2="347.88" y2="64.06" xlink:href="#linear-gradient"/><linearGradient id="linear-gradient-4" x1="449.18" y1="269.01" x2="-21.82" y2="269.01" xlink:href="#linear-gradient"/><linearGradient id="linear-gradient-5" x1="449.18" y1="221.27" x2="-21.82" y2="221.27" xlink:href="#linear-gradient"/><linearGradient id="linear-gradient-6" x1="449.18" y1="173.53" x2="-21.82" y2="173.53" xlink:href="#linear-gradient"/><linearGradient id="linear-gradient-7" x1="87.44" y1="3.14" x2="98.73" y2="189.8" xlink:href="#linear-gradient"/><linearGradient id="linear-gradient-8" x1="60.73" y1="4.75" x2="72.01" y2="191.41" xlink:href="#linear-gradient"/><linearGradient id="linear-gradient-9" x1="12.23" y1="7.68" x2="23.52" y2="194.34" xlink:href="#linear-gradient"/><linearGradient id="linear-gradient-10" x1="90.79" y1="2.93" x2="102.08" y2="189.59" xlink:href="#linear-gradient"/><linearGradient id="linear-gradient-11" x1="42.05" y1="5.88" x2="53.33" y2="192.54" xlink:href="#linear-gradient"/><linearGradient id="linear-gradient-12" x1="110.62" y1="1.74" x2="121.9" y2="188.39" xlink:href="#linear-gradient"/></defs><g id="Layer_2" data-name="Layer 2"><g id="Layer_1-2" data-name="Layer 1"><path class="cls-1" d="M114.86,286V275.24H89.14A74.27,74.27,0,0,1,44.53,141.59H22.73A89.06,89.06,0,0,0,89.14,290.08h17.24v.16l.24-.16h9.08A10.51,10.51,0,0,1,114.86,286Zm-10-200.42H81.61c-.62.67-1.21,1.35-1.79,2.06v36.52a7.29,7.29,0,0,0,.7-2.31A49.22,49.22,0,0,1,104.89,85.53ZM447.4,159.86a80.68,80.68,0,0,0-38.7-26.31A140.48,140.48,0,0,0,148.6,67.09a63.33,63.33,0,0,0-19.24-3,64,64,0,0,0-12.53,1.25V80.61A48.17,48.17,0,0,1,129.36,79a48.8,48.8,0,0,1,19.55,4,7.42,7.42,0,0,0,9.44-3.23,125.82,125.82,0,0,1,110-64.95c68.65,0,125,55.84,125.62,124.49a7.43,7.43,0,0,0,5.76,7.16A65.22,65.22,0,0,1,385,275.24H350.22V286a10.51,10.51,0,0,1-.84,4.13H385c1.71,0,3.39,0,5.06-.15A80,80,0,0,0,447.4,159.86Z"/><path class="cls-2" d="M352.81,99.78a7.44,7.44,0,0,0-4.21,9.62,85,85,0,0,1,5.84,30.29,7.43,7.43,0,0,0,7.42,7.35h.07a7.43,7.43,0,0,0,7.36-7.49A99.81,99.81,0,0,0,362.43,104,7.43,7.43,0,0,0,352.81,99.78Z"/><path class="cls-3" d="M268.39,39.58a7.42,7.42,0,1,0,0,14.84,85.88,85.88,0,0,1,66.35,31.42h0a7.42,7.42,0,1,0,11.44-9.45A100.64,100.64,0,0,0,268.39,39.58Z"/><path class="cls-4" d="M339.46,247.38H125.63a4.69,4.69,0,0,0-4.68,4.68V286a4.69,4.69,0,0,0,4.68,4.68H339.46a4.69,4.69,0,0,0,4.68-4.68V252.06A4.69,4.69,0,0,0,339.46,247.38Z"/><path class="cls-5" d="M339.46,199.64H125.63a4.69,4.69,0,0,0-4.68,4.68v33.89a4.69,4.69,0,0,0,4.68,4.68H339.46a4.69,4.69,0,0,0,4.68-4.68V204.32A4.69,4.69,0,0,0,339.46,199.64Z"/><path class="cls-6" d="M339.46,151.9H125.63a4.69,4.69,0,0,0-4.68,4.68v33.89a4.69,4.69,0,0,0,4.68,4.68H339.46a4.69,4.69,0,0,0,4.68-4.68V156.58A4.69,4.69,0,0,0,339.46,151.9Z"/><rect class="cls-7" x="83.11" y="134.97" width="26.19" height="26.19"/><rect class="cls-8" x="50.65" y="19.27" width="23.32" height="23.32"/><rect class="cls-9" x="5.57" y="27.3" width="16.71" height="16.71"/><rect class="cls-10" x="76.38" y="45.07" width="36.1" height="36.1"/><rect class="cls-11" x="21.21" y="82.97" width="54.27" height="54.27"/><rect class="cls-12" x="109.79" y="116.91" width="16.59" height="16.59"/><circle class="cls-13" cx="318.87" cy="173.37" r="7.69"/><circle class="cls-13" cx="295.41" cy="173.63" r="4.49"/><circle class="cls-13" cx="318.87" cy="220.58" r="7.69"/><circle class="cls-13" cx="295.41" cy="220.83" r="4.49"/><circle class="cls-13" cx="318.87" cy="267.79" r="7.69"/><circle class="cls-13" cx="295.41" cy="268.04" r="4.49"/><line class="cls-13" x1="266.12" y1="173.37" x2="171.5" y2="173.37"/><rect class="cls-13" x="171.51" y="169.99" width="94.61" height="6.75"/><line class="cls-13" x1="266.12" y1="220.58" x2="171.5" y2="220.58"/><rect class="cls-13" x="171.51" y="217.2" width="94.61" height="6.75"/><line class="cls-13" x1="266.12" y1="267.79" x2="171.5" y2="267.79"/><rect class="cls-13" x="171.51" y="264.41" width="94.61" height="6.75"/></g></g></svg>