<svg fill="#ffffff" xmlns="http://www.w3.org/2000/svg"  viewBox="0 0 48 48" width="48px" height="48px"><path d="M 12.5 4 C 10.019 4 8 6.019 8 8.5 L 8 39.5 C 8 41.981 10.019 44 12.5 44 L 25.632812 44 C 24.777812 43.111 24.050609 42.103 23.474609 41 L 12.5 41 C 11.673 41 11 40.327 11 39.5 L 11 8.5 C 11 7.673 11.673 7 12.5 7 L 35.5 7 C 36.327 7 37 7.673 37 8.5 L 37 22.169922 C 38.045 22.331922 39.053 22.603047 40 22.998047 L 40 8.5 C 40 6.019 37.981 4 35.5 4 L 12.5 4 z M 16.5 13 A 1.50015 1.50015 0 1 0 16.5 16 L 17.5 16 A 1.50015 1.50015 0 1 0 17.5 13 L 16.5 13 z M 22.5 13 A 1.50015 1.50015 0 1 0 22.5 16 L 31.5 16 A 1.50015 1.50015 0 1 0 31.5 13 L 22.5 13 z M 16.5 19 A 1.50015 1.50015 0 1 0 16.5 22 L 17.5 22 A 1.50015 1.50015 0 1 0 17.5 19 L 16.5 19 z M 22.5 19 A 1.50015 1.50015 0 1 0 22.5 22 L 31.5 22 A 1.50015 1.50015 0 1 0 31.5 19 L 22.5 19 z M 35 24 C 28.925 24 24 28.925 24 35 C 24 41.075 28.925 46 35 46 C 41.075 46 46 41.075 46 35 C 46 28.925 41.075 24 35 24 z M 16.5 25 A 1.50015 1.50015 0 1 0 16.5 28 L 17.5 28 A 1.50015 1.50015 0 1 0 17.5 25 L 16.5 25 z M 22.5 25 C 21.672 25 21 25.671 21 26.5 C 21 27.329 21.672 28 22.5 28 L 24.056641 28 C 24.780641 26.87 25.667312 25.855 26.695312 25 L 22.5 25 z M 35 27 C 39.411 27 43 30.589 43 35 C 43 39.411 39.411 43 35 43 C 30.589 43 27 39.411 27 35 C 27 32.78 27.888 30.716453 29.5 29.189453 C 29.901 28.811453 30.532063 28.827516 30.914062 29.228516 C 31.293063 29.629516 31.276 30.262578 30.875 30.642578 C 29.666 31.787578 29 33.335 29 35 C 29 38.309 31.691 41 35 41 C 38.309 41 41 38.309 41 35 C 41 32.032 38.834 29.560031 36 29.082031 L 36 30 C 36 30.552 35.553 31 35 31 C 34.447 31 34 30.552 34 30 L 34 28 C 34 27.448 34.447 27 35 27 z M 16.5 31 A 1.50015 1.50015 0 1 0 16.5 34 L 17.5 34 A 1.50015 1.50015 0 1 0 17.5 31 L 16.5 31 z M 33 32 C 33.25575 32 33.511531 32.097469 33.707031 32.292969 L 35.707031 34.292969 C 36.098031 34.683969 36.098031 35.316031 35.707031 35.707031 C 35.512031 35.902031 35.256 36 35 36 C 34.744 36 34.487969 35.902031 34.292969 35.707031 L 32.292969 33.707031 C 31.901969 33.316031 31.901969 32.683969 32.292969 32.292969 C 32.488469 32.097469 32.74425 32 33 32 z"/></svg>